<?xml version="1.0" encoding="UTF-8"?>
<svg version="1.1" xmlns="http://www.w3.org/2000/svg" width="166" height="158">
<path d="M0 0 C14.48194654 -0.14033109 28.96378723 -0.24565008 43.44627476 -0.31087303 C50.17120187 -0.34177569 56.89570586 -0.38388593 63.62036133 -0.45263672 C70.11077805 -0.51785601 76.60075541 -0.55371243 83.09147453 -0.56926346 C85.56703546 -0.5803449 88.04257249 -0.6019846 90.51794624 -0.63438034 C93.98718237 -0.67797494 97.45460604 -0.68393243 100.92407227 -0.68115234 C102.45724594 -0.71350983 102.45724594 -0.71350983 104.02139282 -0.746521 C110.01208119 -0.694619 113.30872923 0.15337107 117.6059866 4.42954063 C118.06601102 4.94779222 118.52603544 5.46604382 119 6 C119.85207031 6.95261719 120.70414062 7.90523437 121.58203125 8.88671875 C122.31808594 9.81097656 123.05414063 10.73523438 123.8125 11.6875 C124.56144531 12.61949219 125.31039062 13.55148438 126.08203125 14.51171875 C130 19.59470468 130 19.59470468 130 25 C116.14 25.33 102.28 25.66 88 26 C89.75050011 30.37625027 91.75486345 33.82857089 94.4375 37.625 C94.83259766 38.19734375 95.22769531 38.7696875 95.63476562 39.359375 C99.36828411 44.90594541 99.36828411 44.90594541 105 48 C106.85528679 48.11626729 108.7142936 48.17660056 110.57299805 48.20532227 C111.71395432 48.22526749 112.85491058 48.24521271 114.03044128 48.26576233 C115.26176285 48.28247482 116.49308441 48.29918732 117.76171875 48.31640625 C119.02264847 48.33718735 120.28357819 48.35796844 121.5827179 48.37937927 C124.93145458 48.43372122 128.28020205 48.48396166 131.62902832 48.53222656 C135.04766229 48.58250357 138.46620826 48.63815724 141.88476562 48.69335938 C148.58977362 48.800535 155.29484753 48.90230512 162 49 C162.93848042 52.29837432 163.05808206 53.6427703 161.40625 56.69921875 C161.02984375 57.39708496 160.6534375 58.09495117 160.265625 58.81396484 C158.1061723 62.54385286 155.83094239 66.18773392 153.5 69.8125 C152.4283313 71.49475719 151.35671829 73.17704986 150.28515625 74.859375 C149.74004395 75.71208984 149.19493164 76.56480469 148.63330078 77.44335938 C146.05699989 81.47609823 143.49558912 85.51819123 140.9375 89.5625 C140.44636719 90.33779053 139.95523438 91.11308105 139.44921875 91.91186523 C135.43461321 98.26722351 131.51244867 104.67696723 127.65209961 111.12719727 C121.55676028 121.22161986 121.55676028 121.22161986 118 123 C116.42879781 123.09255054 114.8536794 123.12192535 113.27975464 123.12025452 C111.78632538 123.12231651 111.78632538 123.12231651 110.26272583 123.12442017 C109.16652924 123.12082489 108.07033264 123.11722961 106.94091797 123.11352539 C105.78970459 123.11367142 104.63849121 123.11381744 103.45239258 123.1139679 C99.63230531 123.11326904 95.81226629 123.1054779 91.9921875 123.09765625 C89.34945706 123.09579197 86.70672627 123.09436812 84.06399536 123.09336853 C77.80959377 123.09025748 71.55520961 123.08204714 65.3008157 123.07201904 C58.18119741 123.06085088 51.06157829 123.05534568 43.94195342 123.05032361 C29.29462661 123.03986435 14.64731355 123.02226928 0 123 C1.59992231 113.37532594 10.92510106 105.345353 18 99 C21.09729245 97.45135377 24.36800778 97.86464612 27.7668457 97.87402344 C28.56865265 97.8721553 29.37045959 97.87028717 30.19656372 97.86836243 C31.94100434 97.86435375 33.68545022 97.86228316 35.4298954 97.86190033 C39.1373368 97.85849068 42.84460189 97.83713527 46.55198193 97.81666946 C53.45842461 97.77861551 60.36468082 97.74738531 67.27124023 97.74951172 C72.07189165 97.75029847 76.87190057 97.72694969 81.67238426 97.6876297 C83.50196635 97.67716099 85.33162251 97.67565208 87.16121864 97.68328094 C89.7231768 97.69289682 92.28318834 97.67173337 94.8449707 97.64355469 C95.59996353 97.65375137 96.35495636 97.66394806 97.13282776 97.67445374 C101.11836538 97.59590535 102.81146038 97.15610788 105.92356873 94.57933044 C107.58004809 92.52166174 109.09231263 90.57590002 110.421875 88.30078125 C110.80730469 87.64916016 111.19273438 86.99753906 111.58984375 86.32617188 C111.97269531 85.66166016 112.35554688 84.99714844 112.75 84.3125 C113.14832031 83.63638672 113.54664062 82.96027344 113.95703125 82.26367188 C115.36259384 79.86945084 116.7580231 77.4839538 118 75 C116.10652077 75.00999275 116.10652077 75.00999275 114.17478943 75.02018738 C102.27163569 75.08103422 90.36851357 75.1259899 78.46523952 75.15543652 C72.34581959 75.17108429 66.22652534 75.19230666 60.10717773 75.22631836 C54.20034107 75.258943 48.29362521 75.2768597 42.3867054 75.28463173 C40.13448244 75.29016962 37.88226599 75.30098375 35.63009453 75.31719017 C32.4725713 75.33900531 29.3155456 75.34196516 26.15795898 75.34057617 C25.22935059 75.351362 24.30074219 75.36214783 23.34399414 75.3732605 C16.66546005 75.34152494 11.80695912 74.37511926 6.5625 69.9375 C4.25823028 65.60547292 3.9933524 61.79462522 5 57 C7.28485553 53.02478114 9.62655429 50.45781524 14 49 C15.73277162 48.88446109 17.46943121 48.82354865 19.20581055 48.79467773 C20.79712044 48.7647599 20.79712044 48.7647599 22.420578 48.73423767 C23.56440445 48.71752518 24.7082309 48.70081268 25.88671875 48.68359375 C27.64493706 48.6524221 27.64493706 48.6524221 29.43867493 48.62062073 C33.18822286 48.55516182 36.93784163 48.49625704 40.6875 48.4375 C43.22722091 48.39431132 45.76693462 48.35069692 48.30664062 48.30664062 C54.53768522 48.19948414 60.76880051 48.0977108 67 48 C67 43.76939697 64.70923674 41.35673816 62.3125 38.0625 C61.65991211 37.13147461 61.65991211 37.13147461 60.99414062 36.18164062 C57.50824936 31.33237855 54.12584202 27.14200232 48 26 C46.1424181 25.8995107 44.28205042 25.84557359 42.421875 25.82421875 C41.34292969 25.80037109 40.26398437 25.77652344 39.15234375 25.75195312 C36.89992695 25.70928392 34.64726631 25.67787194 32.39453125 25.65820312 C20.78164943 25.36132208 15.22495787 21.85014853 7.27734375 13.53515625 C-0 5.43396226 -0 5.43396226 0 0 Z " fill="#FFFFFF" transform="translate(0,20)"/>
</svg>
