<?xml version="1.0" encoding="UTF-8"?>
<svg id="Capa_2" data-name="Capa 2" xmlns="http://www.w3.org/2000/svg" viewBox="0 0 499.86 663.64">
  <defs>
    <style>
      .cls-1 {
        fill: #3d3838;
      }
    </style>
  </defs>
  <g id="Capa_2-2" data-name="Capa 2">
    <path class="cls-1" d="M489.9,173.61c7.36,6.57,10.06,14.49,9.84,23.93-.11,64.03.17,151.99.04,228.6-.28,100.77.49,189.64-.27,231.22-.44,5.18-1.68,8.07-7.34,5.06-12.38-7.49-34.07-27.84-48.32-39.9-16.66-15.99-38.6-28.61-40.68-50.45-1.52-75.21.11-242.23-.67-316.97.23-16.59-6.07-24.92-21.03-34.85-13.43-9.18-33.79-21.52-49.82-31.53-8.9-5.48-23.88-14.18-27.07-12.16-5.43,1.7-4.89,11.62-5.27,17.75-.06,72.05,0,321.13-.03,395.13,4.13,34.04-35.49,65.5-67.25,49.51-20.55-10.5-30.73-33.12-29.8-55.47-.23-42.54-.01-106.85-.09-157.49-.95-13.27,3.14-44.03-6.09-46.29-6.99-.58-13.9,4.98-20.06,8.48-12.09,7.79-29.15,19.66-43.11,29.41-15.31,10.69-31.43,23-33.85,42.69-5.27,36.45,2.84,76.91-5.74,113.77-4.6,17.94-14.53,29.31-28.4,41.65-11.14,9.93-24.15,21.21-35.36,30.8-12.71,9.95-27.55,25.34-29.03,11.08-1.01-80.34-.21-352.03-.28-435.46-1.28-16.39,13.03-28.08,25.77-39.59,13.5-11.97,30.25-26.56,43.42-37.7,12.01-9.12,27.61-25.78,27.58,4.13.84,39.47-.19,103.09.43,140.58.82,7.17-1.04,20.4,7.81,21.81,13.83-2.04,25.72-13.63,38.59-21.47,18.58-14.14,43.35-25.73,54.25-44.98,3.14-6.6,3.64-14.08,3.92-21.87.43-50.72-.02-151.01.2-199.74.27-13.17-.67-30.46,18.08-20.17,25.44,13.59,61.36,37.61,88.31,54.11,35.13,22.03,77.29,48.47,111.75,70.07,23.22,15.43,49,28.53,69.36,46.11l.19.18Z"/>
  </g>
</svg>