<?xml version="1.0" encoding="UTF-8"?>
<svg id="Capa_2" data-name="Capa 2" xmlns="http://www.w3.org/2000/svg" viewBox="0 0 691.87 165.08">
  <defs>
    <style>
      .cls-1 {
        fill: #fff;
      }
    </style>
  </defs>
  <path class="cls-1" d="M161.83,161.79c-2.17,2.43-4.78,3.32-7.9,3.25-21.15-.04-50.2.06-75.5.01-33.28-.09-62.63.16-76.36-.09-1.71-.15-2.67-.55-1.67-2.42,2.47-4.09,9.19-11.25,13.18-15.96,5.28-5.5,9.45-12.75,16.66-13.43,24.84-.5,80,.04,104.68-.22,5.48.08,8.23-2,11.51-6.94,3.03-4.44,7.11-11.16,10.41-16.45,1.81-2.94,4.68-7.89,4.02-8.94-.56-1.79-3.84-1.62-5.86-1.74-23.79-.02-106.05,0-130.49,0-11.24,1.36-21.63-11.72-16.35-22.21,3.47-6.79,10.94-10.15,18.32-9.84,14.05-.08,35.29,0,52.01-.03,4.38-.31,14.54,1.04,15.29-2.01.19-2.31-1.64-4.59-2.8-6.62-2.57-3.99-6.49-9.63-9.71-14.24-3.53-5.06-7.6-10.38-14.1-11.18-12.04-1.74-25.4.94-37.57-1.9-5.92-1.52-9.68-4.8-13.75-9.38-3.28-3.68-7-7.98-10.17-11.68C2.37,5.56-2.71.66,2,.17,28.53-.16,118.26.1,145.81.08c5.41-.42,9.27,4.3,13.08,8.51,3.95,4.46,8.77,9.99,12.45,14.34,3.01,3.97,8.51,9.12-1.36,9.11-13.03.28-34.04-.06-46.43.14-2.37.27-6.74-.34-7.2,2.58.67,4.57,4.5,8.49,7.09,12.74,4.67,6.14,8.5,14.32,14.85,17.92,2.18,1.04,4.65,1.2,7.22,1.29,16.75.14,49.87,0,65.96.07,4.35.09,10.06-.22,6.66,5.97-4.49,8.4-12.42,20.26-17.87,29.17-7.27,11.6-16.01,25.52-23.14,36.91-5.09,7.67-9.42,16.18-15.23,22.91l-.06.06Z"/>
  <g>
    <path class="cls-1" d="M251.76,123.48V53.69h12.51v28.86h32.46v-28.86h12.51v69.8h-12.51v-30.4h-32.46v30.4h-12.51Z"/>
    <path class="cls-1" d="M318.61,123.48l24.36-69.8h15.88l24.92,69.8h-13.73l-12.41-36.26c-1.22-3.75-2.48-7.99-3.79-12.72-1.31-4.73-2.76-10.11-4.36-16.14h2.62c-1.56,6.09-2.97,11.52-4.24,16.28-1.26,4.76-2.46,8.96-3.58,12.58l-11.99,36.26h-13.68ZM332.81,106.2v-10.07h36.77v10.07h-36.77Z"/>
    <path class="cls-1" d="M393.09,123.48V53.69h26.09c5.34,0,9.84.94,13.49,2.81,3.65,1.87,6.42,4.49,8.29,7.85,1.87,3.36,2.81,7.25,2.81,11.69s-.94,8.29-2.83,11.57c-1.89,3.28-4.68,5.81-8.36,7.59-3.69,1.78-8.21,2.67-13.58,2.67h-18.64v-10.35h17c3.15,0,5.73-.44,7.73-1.33,2-.89,3.48-2.19,4.45-3.91.97-1.72,1.45-3.79,1.45-6.23s-.48-4.63-1.45-6.39c-.97-1.76-2.46-3.12-4.47-4.05s-4.61-1.41-7.8-1.41h-11.66v59.31h-12.51ZM432.35,123.48l-16.96-31.67h13.68l17.29,31.67h-14.01Z"/>
    <path class="cls-1" d="M468.19,53.69v69.8h-12.51V53.69h12.51ZM479.29,123.48h-17.66v-10.82h17.05c4.87,0,8.94-.9,12.2-2.69,3.26-1.8,5.72-4.48,7.38-8.06,1.66-3.58,2.48-8.05,2.48-13.42s-.83-9.74-2.48-13.3c-1.66-3.56-4.08-6.23-7.28-8.01-3.2-1.78-7.19-2.67-11.97-2.67h-17.75v-10.82h18.5c6.93,0,12.88,1.39,17.85,4.17,4.97,2.78,8.78,6.78,11.45,11.99,2.67,5.22,4,11.43,4,18.64s-1.33,13.53-4,18.76c-2.67,5.23-6.53,9.24-11.57,12.04-5.04,2.79-11.11,4.19-18.2,4.19Z"/>
    <path class="cls-1" d="M528.99,124.28c-2.09,0-3.87-.72-5.32-2.15s-2.18-3.2-2.18-5.29.73-3.9,2.18-5.34c1.45-1.44,3.22-2.15,5.32-2.15s3.91.72,5.36,2.15c1.45,1.44,2.18,3.22,2.18,5.34s-.73,3.86-2.18,5.29-3.24,2.15-5.36,2.15Z"/>
    <path class="cls-1" d="M562.95,92.8v30.68h-12.18v-52.37h11.52l.19,12.93h-.98c1.47-4.53,3.62-7.92,6.46-10.19,2.84-2.26,6.4-3.4,10.68-3.4,3.59,0,6.73.77,9.42,2.3,2.69,1.53,4.77,3.76,6.25,6.7,1.48,2.94,2.22,6.51,2.22,10.73v33.31h-12.18v-31.43c0-3.5-.91-6.25-2.72-8.24-1.81-2-4.31-3-7.5-3-2.15,0-4.08.47-5.76,1.41s-3.01,2.3-3.98,4.1c-.97,1.8-1.45,3.96-1.45,6.49Z"/>
    <path class="cls-1" d="M632.61,124.56c-5.28,0-9.81-1.11-13.61-3.33-3.79-2.22-6.71-5.34-8.76-9.37-2.05-4.03-3.07-8.77-3.07-14.24s1.01-10.13,3.02-14.19c2.01-4.06,4.87-7.24,8.57-9.53,3.7-2.3,8.05-3.44,13.05-3.44,3.19,0,6.22.52,9.11,1.55,2.89,1.03,5.45,2.62,7.68,4.78,2.23,2.15,3.98,4.9,5.25,8.22,1.26,3.33,1.9,7.28,1.9,11.88v3.84h-42.82v-8.29h36.77l-5.71,2.44c0-2.94-.45-5.52-1.36-7.75-.91-2.23-2.26-3.97-4.05-5.22-1.8-1.25-4.04-1.87-6.72-1.87s-4.97.63-6.84,1.9c-1.87,1.27-3.3,2.95-4.29,5.06-.98,2.11-1.48,4.46-1.48,7.05v5.72c0,3.31.56,6.11,1.69,8.38,1.12,2.28,2.7,4,4.73,5.15,2.03,1.16,4.39,1.73,7.07,1.73,1.78,0,3.4-.26,4.85-.77,1.45-.52,2.71-1.28,3.77-2.3,1.06-1.01,1.86-2.26,2.39-3.72l11.2,2.3c-.84,2.81-2.28,5.27-4.31,7.38-2.03,2.11-4.57,3.75-7.61,4.92-3.04,1.17-6.52,1.76-10.42,1.76Z"/>
    <path class="cls-1" d="M690.42,71.11v9.56h-29.75v-9.56h29.75ZM668.12,58.65h12.18v50.08c0,1.91.41,3.3,1.22,4.19.81.89,2.14,1.33,3.98,1.33.56,0,1.3-.07,2.22-.21.92-.14,1.66-.27,2.23-.4l1.92,9.42c-1.34.41-2.72.69-4.12.87-1.41.17-2.75.26-4.03.26-5.03,0-8.88-1.25-11.57-3.75-2.69-2.5-4.03-6.06-4.03-10.68v-51.11Z"/>
  </g>
</svg>